<?xml version="1.0" encoding="UTF-8" standalone="no"?>
<svg
   version="1.1"
   id="svg1"
   width="960"
   height="640"
   viewBox="0 0 960 640"
   xmlns="http://www.w3.org/2000/svg"
   xmlns:svg="http://www.w3.org/2000/svg">
  <!-- static elements -->
  <g>
    <path style="fill:none;stroke:black"
       d="M 748,220 L 762,220 C 769,220 772,223 772,230
          L 777,408 L 781,454 L 781,463
          C 781,466 778,468 776,468 L 64,468 C 61,468 59,465 59,463
          L 59,454 L 63,408 L 68,230
          C 68,223 75,220 78,220 L 262,220
          M 59,454 L 781,454
          M 63,408 L 251,408 M 320,408 L 690,408 M 759,408 L 777,408
          M 70,224 L 119,168 C 123,164 126,164 130,164
          L 710,164 C 714,164 717,164 721,168 L 770,223
          M 134,468 L 134,477 C 134,479 133,480 131,480 L 71,480 C 69,480 68,479 68,477 L 68,468
          M 538,468 L 538,477 C 538,479 537,480 535,480 L 475,480 C 473,480 472,479 472,477 L 472,468
          M 772,468 L 772,477 C 772,479 771,480 769,480 L 709,480 C 707,480 706,479 706,477 L 706,468

          M 233,233 C 236,233 238,235 238,238
          L 238,387 C 238,390 236,392 233,392
          L 81,392 C 78,392 76,390 76,387
          L 76,238 C 76,235 78,233 81,233 Z
          M 183,285 L 201,285 L 201,323 L 183,323 Z
          M 188,299 L 196,299 M 188,305 L 196,305
          M 212,285 L 230,285 L 230,323 L 212,323 Z
          M 217,299 L 225,299 M 217,305 L 225,305

          M 267,212 C 264,212 262,214 262,217
          L 251,392 L 251,444 L 313,444 L 313,217
          C 313,214 311,212 308,212 Z
          M 251,392 L 300,392 C 303,392 305,390 305,387 L 305,212
          M 313,444 L 320,408 L 320,210 C 320,207 318,205 315,205
          M 743,212 C 746,212 748,214 748,217
          L 759,392 L 759,444 L 697,444 L 697,217
          C 697,214 699,212 702,212 Z
          M 759,392 L 710,392 C 707,392 705,390 705,387 L 705,212
          M 697,444 L 690,408 L 690,210 C 690,207 692,205 695,205
          M 262,217 L 263,210 C 263,208 265,205 268,205
          L 742,205 C 745,205 747,208 747,210 L 748,217"/>
    <circle style="fill:none;stroke:black" cx="128" cy="298" r="44"/>
  </g>

  <!-- buttons in pannel, can be highlighted, change 'none' to 'lightblue' -->
  <g>
    <circle style="fill:lightblue;stroke:black" cx="177" cy="372" r="10"/>
    <circle style="fill:none;stroke:black" cx="205" cy="372" r="10"/>
  </g>
  <!-- stick, can be moved up/down/left/right, change 'translate' -->
  <g transform="translate(0 0)">
    <circle style="fill:white;stroke:black" cx="115" cy="298" r="35"/>
    <circle style="fill:black;stroke:black" cx="115" cy="298" r="5"/>
  </g>
  <!-- steering wheel, can be rotated, change 1st element of 'rotate' to -60..60 -->
  <g transform="translate(505 317) rotate(-00 0 0)">
    <!-- outline, filled -->
    <path style="fill:white;stroke:#000000"
       d="M 78,56 C 75,64 67,68 57,68 L -57,68 C -67,68 -75,64 -78,56 L -156,72 C -186,78 -231,58 -231,19 L -231,-21
          C -236,-24 -240,-26 -240,-29 L -214,-245 C -214,-257 -155,-255 -155,-243
          L -163,-27 C -163,-23 -168,-21 -175,-19
          C -175,5 -167,17 -147,7 L -72,-32
          L -71,-47 C -69,-60 -62,-65 -50,-65 L 50,-65
          C 62,-65 69,-60 71,-47 L 72,-32
          L 147,7 C 167,17 175,5 175,-19
          C 168,-21 163,-23 163,-27 L 155,-243
          C 155,-255 214,-257 214,-245 L 240,-29 C 240,-26 237,-24 231,-21
          L 231,22 C 231,61 186,78 156,72 Z"/>
    <!-- inner lines -->
    <path style="fill:none;stroke:black"
       d="M -163,-27 C -163,-13 -240,-15 -240,-29
          M 163,-27 C 163,-13 240,-15 240,-29
          M 47,-51 C 53,-51 56,-49 57,-43
          L 63,40 C 63,47 61,51 52,51
          L -52,51 C -61,51 -63,47 -63,40
          L -57,-43 C -56,-49 -53,-51 -47,-51 Z
          M -215,-18 L -215,19 C -215,49 -185,60 -161,55 L -79,40
          M -74,-15 L -148,23 C -175,33 -190,13 -190,-17
          M -57,68 C -71,68 -80,61 -79,46 L -72,-32
          M 215,-18 L 215,19 C 215,49 185,60 161,55 L 79,40
          M 74,-15 L 148,23 C 175,33 190,13 190,-17
          M 57,68 C 71,68 80,61 79,46 L 72,-32"/>
    <!-- left button, can be highlighted, change 'none' to 'lightblue' -->
    <path style="fill:lightblue;stroke:black"
       d="M -155,-243 C -155,-231 -214,-233 -214,-245
          C -214,-257 -155,-255, -155,-243"/>
    <path style="fill:none;stroke:black"
       d="M -164,-243 C -164,-236 -207,-238 -207,-245"/>
    <!-- right button, can be highlighted, change 'none' to 'lightblue' -->
    <path style="fill:none;stroke:black"
       d="M 155,-243 C 155,-255 214,-257 214,-245
          C 214,-233 155,-231 155,-243"/>
    <path style="fill:none;stroke:black"
       d="M 164,-243 C 164,-236 207,-238 207,-245"/>
  </g>
</svg>
